# xmcd CD database file
#
# Track frame offsets:
#	150
#	20675
#	44770
#	64521
#	90054
#	114435
#	135180
#	155039
#	181033
#	199667
#	215646
#	242164
#	273676
#	297085
#	359175
#
# Disc length: 4795 seconds
#
# Revision: 1
# Processed by: cddbd v1.5.1PL2 Copyright (c) Steve Scherf et al.
# Submitted via: CDex 1.60beta1-cs1
#
DISCID=e012b90f
DTITLE=石野 卓球 - TITLE#2
DYEAR=2004
DGENRE=Techno
TTITLE0=Wooden Case
TTITLE1=Tokaido
TTITLE2=Sam and Jerry
TTITLE3=The Gate
TTITLE4=Fujiyama
TTITLE5=Starlights In Sunshine, feat Tavito Nanao
TTITLE6=Love Domination
TTITLE7=Gossip Pop
TTITLE8=Electronic Cock Sucker
TTITLE9=Jack it!
TTITLE10=I Love You
TTITLE11=The Rising Suns (Discotheque)
TTITLE12=Take Me To The Heaven
TTITLE13=LGCD2
TTITLE14=LGCD2
EXTD=YEAR: 2004
EXTT0=
EXTT1=
EXTT2=
EXTT3=
EXTT4=
EXTT5=
EXTT6=
EXTT7=
EXTT8=
EXTT9=
EXTT10=
EXTT11=
EXTT12=
EXTT13=
EXTT14=
PLAYORDER=
